<?xml version="1.0" standalone="no"?>
<!DOCTYPE svg PUBLIC "-//W3C//DTD SVG 20010904//EN"
 "http://www.w3.org/TR/2001/REC-SVG-20010904/DTD/svg10.dtd">
<svg version="1.0" xmlns="http://www.w3.org/2000/svg"
 width="500.000000pt" height="500.000000pt" viewBox="0 0 500.000000 500.000000"
 preserveAspectRatio="xMidYMid meet">

<g transform="translate(0.000000,500.000000) scale(0.100000,-0.100000)"
fill="#000000" stroke="none">
<path d="M1060 3865 l0 -44 106 -3 107 -3 139 -444 c76 -245 137 -450 134
-456 -2 -6 -40 -33 -85 -61 -109 -66 -109 -66 -30 -269 34 -88 69 -168 77
-177 12 -15 32 -18 110 -18 86 0 93 -2 86 -17 -19 -43 -16 -112 6 -150 33 -59
82 -88 150 -88 62 1 103 22 141 77 24 33 32 112 16 156 -8 22 -7 22 67 22 l75
0 36 -75 c41 -85 117 -170 206 -229 167 -110 391 -126 578 -40 l55 25 58 -58
c45 -45 58 -64 58 -88 0 -26 34 -64 263 -293 320 -320 287 -307 430 -164 142
142 154 110 -163 427 -241 241 -262 260 -291 257 -27 -3 -40 5 -95 59 l-63 62
24 46 c57 114 77 259 51 380 -39 186 -150 332 -314 415 -46 23 -52 30 -46 49
52 165 84 272 84 283 0 8 -7 26 -16 39 l-16 25 -590 0 -589 0 3 -42 3 -43 556
-5 556 -5 -38 -121 -39 -121 -105 1 c-58 1 -105 4 -105 7 0 3 9 32 20 64 25
73 25 72 -4 79 -13 3 -31 9 -39 12 -12 4 -22 -15 -45 -86 l-29 -91 -82 -40
c-51 -25 -104 -62 -145 -99 -35 -33 -66 -60 -70 -60 -3 0 -6 43 -6 95 l0 95
-40 0 -40 0 0 -176 c0 -130 -4 -190 -16 -230 l-15 -54 -213 0 -212 0 -183 588
c-119 378 -191 595 -204 610 -19 21 -29 22 -144 22 l-123 0 0 -45z m1796 -789
c83 -22 169 -74 232 -140 100 -104 142 -211 142 -360 -1 -430 -515 -659 -841
-376 -183 158 -224 452 -91 656 99 152 245 232 422 233 47 1 108 -5 136 -13z
m-1242 -348 c18 -60 36 -99 49 -110 19 -15 49 -18 245 -18 l222 0 0 -27 c0
-16 3 -45 6 -66 l7 -37 -289 2 -288 3 -53 135 c-29 74 -53 137 -53 140 0 7
103 69 116 70 6 0 23 -42 38 -92z m285 -353 c32 -16 41 -33 41 -78 0 -93 -131
-105 -163 -15 -10 27 13 77 42 93 33 18 46 18 80 0z m1358 -322 l-37 -37 -55
54 -55 54 37 38 37 38 56 -55 55 -55 -38 -37z m368 -224 l227 -231 -71 -72
-71 -71 -232 232 -233 233 70 70 c38 38 72 70 76 70 3 0 109 -104 234 -231z"/>
<path d="M2730 2955 l0 -45 40 0 c40 0 40 0 40 39 0 41 -11 51 -56 51 -22 0
-24 -4 -24 -45z"/>
<path d="M2910 2909 c0 -36 7 -49 54 -100 53 -57 77 -106 92 -191 6 -37 8 -38
46 -38 l41 0 -7 58 c-12 107 -106 256 -188 298 -38 19 -38 19 -38 -27z"/>
<path d="M1650 3465 l0 -45 40 0 40 0 0 45 0 45 -40 0 -40 0 0 -45z"/>
<path d="M1763 3327 l-31 -12 63 -200 c35 -110 67 -200 72 -200 30 1 74 19 71
28 -3 7 -31 99 -64 204 -32 106 -63 193 -69 192 -5 0 -24 -6 -42 -12z"/>
<path d="M2170 3290 l0 -40 40 0 40 0 0 40 0 40 -40 0 -40 0 0 -40z"/>
<path d="M1918 2828 c-32 -11 -32 -13 -17 -57 8 -22 16 -30 26 -27 8 4 26 9
39 12 27 7 28 10 13 53 -12 33 -18 35 -61 19z"/>
</g>
</svg>
